<svg width="20" height="20" viewBox="0 0 20 20" fill="none" xmlns="http://www.w3.org/2000/svg">
<path d="M19.3359 18.457L14.7266 13.8672C15.2995 13.1641 15.7487 12.3763 16.0742 11.5039C16.3997 10.6315 16.5625 9.71354 16.5625 8.75C16.5625 7.63021 16.3542 6.58203 15.9375 5.60547C15.5078 4.62891 14.9284 3.77604 14.1992 3.04688C13.4701 2.31771 12.6172 1.73828 11.6406 1.30859C10.6641 0.891928 9.61589 0.683594 8.49609 0.683594C7.3763 0.683594 6.32812 0.891928 5.35156 1.30859C4.375 1.73828 3.52214 2.31771 2.79297 3.04688C2.0638 3.77604 1.48438 4.62891 1.05469 5.60547C0.638021 6.58203 0.429688 7.63021 0.429688 8.75C0.429688 9.85677 0.638021 10.9049 1.05469 11.8945C1.48438 12.8711 2.0638 13.724 2.79297 14.4531C3.52214 15.1823 4.375 15.7552 5.35156 16.1719C6.32812 16.6016 7.3763 16.8164 8.49609 16.8164C9.47266 16.8164 10.3939 16.6536 11.2598 16.3281C12.1257 16.0026 12.9102 15.5534 13.6133 14.9805L18.2031 19.5898C18.3594 19.7461 18.5482 19.8242 18.7695 19.8242C18.9909 19.8242 19.1797 19.7461 19.3359 19.5898C19.4922 19.4336 19.5703 19.2448 19.5703 19.0234C19.5703 18.8021 19.4922 18.6133 19.3359 18.457ZM8.49609 15.2148C7.61068 15.2148 6.77083 15.0456 5.97656 14.707C5.19531 14.3685 4.51172 13.9062 3.92578 13.3203C3.33984 12.7344 2.8776 12.0443 2.53906 11.25C2.20052 10.4688 2.03125 9.63542 2.03125 8.75C2.03125 7.85156 2.20052 7.01172 2.53906 6.23047C2.8776 5.44922 3.33984 4.76562 3.92578 4.17969C4.51172 3.59375 5.19531 3.13151 5.97656 2.79297C6.77083 2.45443 7.61068 2.28516 8.49609 2.28516C9.38151 2.28516 10.2214 2.45443 11.0156 2.79297C11.7969 3.13151 12.4805 3.59375 13.0664 4.17969C13.6523 4.76562 14.1146 5.44922 14.4531 6.23047C14.7917 7.01172 14.9609 7.85156 14.9609 8.75C14.9609 9.63542 14.7917 10.4688 14.4531 11.25C14.1146 12.0443 13.6523 12.7344 13.0664 13.3203C12.4805 13.9062 11.7969 14.3685 11.0156 14.707C10.2214 15.0456 9.38151 15.2148 8.49609 15.2148Z" fill="white"/>
</svg>
