<svg width="21" height="20" viewBox="0 0 21 20" fill="none" xmlns="http://www.w3.org/2000/svg">
<path d="M19.0202 10.209C19.0202 9.55898 18.9619 8.93398 18.8535 8.33398H10.2202V11.884H15.1535C14.9369 13.0257 14.2869 13.9923 13.3119 14.6423V16.9507H16.2869C18.0202 15.3507 19.0202 13.0007 19.0202 10.209Z" fill="white"/>
<path d="M10.2204 19.1667C12.6954 19.1667 14.7704 18.35 16.2871 16.95L13.3121 14.6417C12.4954 15.1917 11.4538 15.525 10.2204 15.525C7.83711 15.525 5.81211 13.9167 5.08711 11.75H2.03711V14.1167C3.54544 17.1083 6.63711 19.1667 10.2204 19.1667Z" fill="white"/>
<path d="M5.08704 11.7426C4.90371 11.1926 4.79538 10.6092 4.79538 10.0009C4.79538 9.39258 4.90371 8.80924 5.08704 8.25924V5.89258H2.03704C1.41204 7.12591 1.05371 8.51758 1.05371 10.0009C1.05371 11.4842 1.41204 12.8759 2.03704 14.1092L4.41204 12.2592L5.08704 11.7426Z" fill="white"/>
<path d="M10.2204 4.48398C11.5704 4.48398 12.7704 4.95065 13.7288 5.85065L16.3538 3.22565C14.7621 1.74232 12.6954 0.833984 10.2204 0.833984C6.63711 0.833984 3.54544 2.89232 2.03711 5.89232L5.08711 8.25898C5.81211 6.09232 7.83711 4.48398 10.2204 4.48398Z" fill="white"/>
</svg>
